<svg xmlns="http://www.w3.org/2000/svg" id="SvgjsSvg18324" width="4096" height="1281.1419346407533" version="1.1" xmlns:xlink="http://www.w3.org/1999/xlink" xmlns:svgjs="http://svgjs.com/svgjs"><defs id="SvgjsDefs18325"></defs><g id="SvgjsG18326" transform="translate(328, 327.99999999999994) scale(34.4)" opacity="1"><defs id="SvgjsDefs5753"></defs><g id="SvgjsG5754" transform="scale(0.21645021645021645)" opacity="1"><g id="SvgjsG5755" class="codXkRksg" transform="translate(-4.535327679195437, -1.8151020149372454) scale(1.2855237185928134)" light-content="false" non-strokable="false" fill="#0df280"><path d="M46.399 43.486c-3.391 1.851-6.589 3.446-9.272 5.858-1.654 1.487-2.811 3.299-3.334 5.472-.515 2.137-.444 4.298-.127 6.457.059.401.142.8.24 1.298.742-2.044 1.89-4.625 3.649-7.245 2.764-4.118 5.664-6.295 7.208-7.296L34.8 62.578c1.833-.829 3.58-1.593 5.287-2.438 4.166-2.063 6.509-5.341 6.474-10.102-.015-2.118-.102-4.235-.162-6.552zm-9.536-4.852c-.805-3.556-3-6.413-4.899-9.583-1.75 2.788-3.614 5.327-4.718 8.301-.675 1.817-.646 3.642.057 5.452.987 2.539 2.528 4.747 4.024 6.983a32.608 32.608 0 0 1-.652-4.758c-.302-4.95.683-8.44 1.302-10.173l.77 14.92c1.241-2.213 2.505-4.413 3.673-6.663.723-1.393.784-2.971.443-4.479zM25.914 58.836c-2.846-3.666-4.374-7.34-5.108-9.393l9.527 12.034c.093-1.446.192-2.809.185-4.172-.014-2.94-1.106-5.473-3.213-7.543-2.723-2.674-6.128-4.291-9.474-6.165-.106.249-.192.358-.195.47-.074 2.197-.262 4.4-.172 6.591.099 2.38.727 4.655 2.423 6.469 2.565 2.742 5.941 4.03 9.509 5.461a28.307 28.307 0 0 1-3.482-3.752z"></path><path d="M52.719 13.349V3.907c0-.66-.535-1.195-1.195-1.195h-7.172c-.66 0-1.195.535-1.195 1.195v3.519l-8.449-5.233a5.218 5.218 0 0 0-5.497.003L3.528 18.135v12.28l4.785-2.969v22.296a4.06 4.06 0 0 0 4.056 4.056h2.922a15.21 15.21 0 0 1-.428-3.032 35.887 35.887 0 0 1-.012-2.341h-1.164V24.11l4.799-2.978 8.659-5.375 4.821-2.991 4.83 2.991 8.678 5.375 4.833 2.993v24.299h-1.168c.011.533.021 1.064.025 1.594a14.612 14.612 0 0 1-.451 3.779h2.912a4.06 4.06 0 0 0 4.056-4.056V27.454l4.793 2.968V18.151l-7.755-4.802z"></path></g><g id="SvgjsG5756" class="text" transform="translate(281.25907210735147, 42.01508209359337) scale(1)" light-content="false" fill="#0df280"><path d="M-155.4 -8.36C-155.4 -9.2 -155.55 -10.1 -155.85 -11.08C-156.15 -12.06 -156.62 -12.96 -157.28 -13.79C-157.93 -14.63 -158.8 -15.32 -159.87 -15.87C-160.93 -16.41 -162.23 -16.69 -163.76 -16.69L-172.98 -16.69C-173.12 -16.69 -173.26 -16.69 -173.41 -16.7C-173.55 -16.71 -173.68 -16.74 -173.8 -16.8C-173.91 -16.86 -174.01 -16.96 -174.08 -17.1C-174.16 -17.24 -174.2 -17.43 -174.22 -17.67C-174.22 -17.8 -174.21 -17.92 -174.2 -18.05C-174.18 -18.18 -174.13 -18.3 -174.05 -18.42C-173.96 -18.53 -173.83 -18.62 -173.66 -18.69C-173.48 -18.76 -173.24 -18.8 -172.94 -18.8L-158.35 -18.8L-158.35 -24.75L-172.98 -24.75C-173.72 -24.75 -174.5 -24.62 -175.34 -24.37C-176.18 -24.12 -176.96 -23.71 -177.68 -23.15C-178.39 -22.58 -178.99 -21.84 -179.46 -20.94C-179.94 -20.03 -180.17 -18.91 -180.17 -17.58C-180.17 -16.9 -180.05 -16.16 -179.79 -15.36C-179.54 -14.57 -179.13 -13.83 -178.56 -13.14C-177.99 -12.45 -177.24 -11.88 -176.33 -11.42C-175.41 -10.97 -174.3 -10.74 -172.98 -10.74L-163.76 -10.74C-162.23 -10.74 -161.43 -9.94 -161.35 -8.36C-161.35 -7.58 -161.56 -6.98 -161.97 -6.57C-162.38 -6.16 -162.99 -5.95 -163.8 -5.95L-179.87 -5.95L-179.87 0L-163.76 0C-163.19 0 -162.59 -0.06 -161.96 -0.19C-161.33 -0.32 -160.7 -0.53 -160.08 -0.8C-159.46 -1.08 -158.87 -1.43 -158.31 -1.87C-157.74 -2.3 -157.25 -2.83 -156.82 -3.45C-156.39 -4.06 -156.05 -4.78 -155.79 -5.6C-155.53 -6.41 -155.4 -7.33 -155.4 -8.36Z M-129.14 0L-129.14 -16.41C-129.14 -17.27 -129.24 -18.06 -129.44 -18.8L-124.08 -18.8C-123.27 -18.8 -122.67 -18.59 -122.29 -18.19C-121.9 -17.78 -121.7 -17.19 -121.7 -16.41L-121.7 0L-115.75 0L-115.75 -16.41C-115.75 -17.44 -115.88 -18.35 -116.14 -19.16C-116.4 -19.97 -116.74 -20.68 -117.17 -21.3C-117.6 -21.92 -118.09 -22.45 -118.66 -22.88C-119.22 -23.32 -119.81 -23.67 -120.43 -23.95C-121.05 -24.22 -121.67 -24.42 -122.3 -24.55C-122.92 -24.68 -123.52 -24.75 -124.08 -24.75L-132.14 -24.75L-132.14 -22.92C-133 -23.56 -133.9 -24.02 -134.84 -24.31C-135.79 -24.6 -136.67 -24.75 -137.5 -24.75L-148.24 -24.75C-148.65 -24.75 -149.04 -24.67 -149.4 -24.52C-149.77 -24.37 -150.09 -24.16 -150.36 -23.89C-150.64 -23.62 -150.85 -23.31 -151.01 -22.95C-151.16 -22.59 -151.23 -22.21 -151.23 -21.79L-151.23 0L-145.28 0L-145.28 -18.8L-137.54 -18.8C-136.74 -18.8 -136.12 -18.59 -135.71 -18.19C-135.3 -17.78 -135.09 -17.19 -135.09 -16.41L-135.09 0Z M-84.73 -8.2L-84.73 -16.55C-84.73 -18.05 -85 -19.32 -85.55 -20.36C-86.1 -21.41 -86.79 -22.26 -87.6 -22.9C-88.42 -23.55 -89.3 -24.02 -90.26 -24.31C-91.21 -24.6 -92.1 -24.75 -92.92 -24.75L-106 -24.75L-106 -19.09L-92.92 -19.09C-92.19 -19.09 -91.59 -18.86 -91.1 -18.41C-90.62 -17.95 -90.38 -17.33 -90.38 -16.55L-90.38 -8.24C-90.38 -7.51 -90.6 -6.9 -91.05 -6.41C-91.49 -5.92 -92.12 -5.68 -92.92 -5.68L-103.62 -5.68C-104.32 -5.68 -104.92 -5.9 -105.44 -6.33C-105.95 -6.77 -106.2 -7.37 -106.2 -8.15C-106.2 -8.88 -105.98 -9.5 -105.54 -9.99C-105.1 -10.49 -104.47 -10.74 -103.66 -10.74L-92.92 -10.74L-92.92 -16.41L-103.66 -16.41C-105.16 -16.41 -106.43 -16.14 -107.47 -15.59C-108.52 -15.04 -109.37 -14.36 -110.01 -13.54C-110.66 -12.72 -111.13 -11.84 -111.42 -10.87C-111.71 -9.91 -111.86 -9.02 -111.86 -8.2C-111.86 -6.7 -111.58 -5.43 -111.03 -4.38C-110.48 -3.34 -109.8 -2.49 -108.98 -1.84C-108.17 -1.19 -107.28 -0.72 -106.33 -0.43C-105.37 -0.14 -104.49 0 -103.66 0L-92.92 0C-91.43 0 -90.16 -0.27 -89.11 -0.82C-88.07 -1.37 -87.22 -2.06 -86.57 -2.87C-85.92 -3.69 -85.45 -4.57 -85.16 -5.53C-84.87 -6.48 -84.73 -7.37 -84.73 -8.2Z M-57.99 -18.8L-57.99 -24.75L-71.43 -24.75C-71.98 -24.75 -72.57 -24.68 -73.2 -24.55C-73.84 -24.42 -74.46 -24.22 -75.08 -23.95C-75.7 -23.67 -76.29 -23.32 -76.85 -22.88C-77.42 -22.45 -77.92 -21.92 -78.35 -21.3C-78.79 -20.68 -79.14 -19.97 -79.39 -19.16C-79.65 -18.35 -79.78 -17.44 -79.78 -16.41L-79.78 0L-73.83 0L-73.83 -16.41C-73.83 -17.19 -73.63 -17.78 -73.21 -18.19C-72.8 -18.59 -72.19 -18.8 -71.38 -18.8Z M-31.57 -18.8L-31.57 -24.75L-41.96 -24.75L-41.96 -32.83L-47.98 -32.83L-47.98 -24.75L-55.72 -24.75L-55.72 -18.8L-47.98 -18.8L-47.98 0L-41.96 0L-41.96 -18.8Z M-0.85 2.38L-0.85 -16.41C-0.85 -17.44 -0.98 -18.35 -1.24 -19.16C-1.5 -19.97 -1.84 -20.68 -2.27 -21.3C-2.69 -21.92 -3.19 -22.45 -3.75 -22.88C-4.32 -23.32 -4.91 -23.67 -5.53 -23.95C-6.15 -24.22 -6.77 -24.42 -7.41 -24.55C-8.04 -24.68 -8.64 -24.75 -9.2 -24.75L-19.94 -24.75C-20.96 -24.75 -21.88 -24.62 -22.69 -24.36C-23.5 -24.1 -24.21 -23.76 -24.83 -23.33C-25.45 -22.9 -25.97 -22.41 -26.41 -21.84C-26.84 -21.28 -27.2 -20.68 -27.47 -20.07C-27.75 -19.45 -27.95 -18.83 -28.08 -18.2C-28.21 -17.57 -28.27 -16.98 -28.27 -16.41L-28.27 -8.36C-28.27 -7.33 -28.14 -6.41 -27.88 -5.6C-27.62 -4.78 -27.28 -4.06 -26.85 -3.45C-26.43 -2.83 -25.93 -2.3 -25.37 -1.87C-24.8 -1.43 -24.21 -1.08 -23.59 -0.8C-22.97 -0.53 -22.35 -0.32 -21.73 -0.19C-21.1 -0.06 -20.5 0 -19.94 0L-9.2 0L-9.2 -5.95L-19.89 -5.95C-20.69 -5.95 -21.29 -6.16 -21.7 -6.57C-22.12 -6.98 -22.32 -7.58 -22.32 -8.36L-22.32 -16.41C-22.32 -17.1 -22.11 -17.67 -21.68 -18.12C-21.25 -18.57 -20.67 -18.8 -19.94 -18.8L-9.2 -18.8C-8.39 -18.8 -7.79 -18.59 -7.39 -18.19C-7 -17.78 -6.8 -17.19 -6.8 -16.41L-6.8 2.38C-6.8 3.16 -7 3.75 -7.39 4.17C-7.79 4.58 -8.39 4.78 -9.2 4.78L-19.94 4.78L-19.94 10.74L-9.2 10.74C-8.64 10.74 -8.04 10.67 -7.41 10.54C-6.77 10.41 -6.15 10.21 -5.53 9.94C-4.91 9.66 -4.32 9.31 -3.75 8.87C-3.19 8.44 -2.69 7.91 -2.27 7.29C-1.84 6.67 -1.5 5.96 -1.24 5.14C-0.98 4.32 -0.85 3.4 -0.85 2.38Z M30.15 -8.2L30.15 -16.55C30.15 -18.05 29.88 -19.32 29.33 -20.36C28.78 -21.41 28.09 -22.26 27.28 -22.9C26.46 -23.55 25.58 -24.02 24.62 -24.31C23.67 -24.6 22.78 -24.75 21.95 -24.75L8.88 -24.75L8.88 -19.09L21.95 -19.09C22.69 -19.09 23.29 -18.86 23.77 -18.41C24.26 -17.95 24.5 -17.33 24.5 -16.55L24.5 -8.24C24.5 -7.51 24.27 -6.9 23.83 -6.41C23.39 -5.92 22.76 -5.68 21.95 -5.68L11.26 -5.68C10.56 -5.68 9.95 -5.9 9.44 -6.33C8.93 -6.77 8.68 -7.37 8.68 -8.15C8.68 -8.88 8.9 -9.5 9.34 -9.99C9.78 -10.49 10.41 -10.74 11.22 -10.74L21.95 -10.74L21.95 -16.41L11.22 -16.41C9.72 -16.41 8.45 -16.14 7.41 -15.59C6.36 -15.04 5.51 -14.36 4.86 -13.54C4.22 -12.72 3.75 -11.84 3.46 -10.87C3.17 -9.91 3.02 -9.02 3.02 -8.2C3.02 -6.7 3.3 -5.43 3.85 -4.38C4.4 -3.34 5.08 -2.49 5.9 -1.84C6.71 -1.19 7.6 -0.72 8.55 -0.43C9.5 -0.14 10.39 0 11.22 0L21.95 0C23.45 0 24.72 -0.27 25.77 -0.82C26.81 -1.37 27.66 -2.06 28.31 -2.87C28.96 -3.69 29.43 -4.57 29.72 -5.53C30.01 -6.48 30.15 -7.37 30.15 -8.2Z M56.89 -18.8L56.89 -24.75L43.45 -24.75C42.9 -24.75 42.31 -24.68 41.68 -24.55C41.04 -24.42 40.42 -24.22 39.8 -23.95C39.18 -23.67 38.59 -23.32 38.03 -22.88C37.46 -22.45 36.96 -21.92 36.53 -21.3C36.09 -20.68 35.74 -19.97 35.48 -19.16C35.23 -18.35 35.1 -17.44 35.1 -16.41L35.1 0L41.05 0L41.05 -16.41C41.05 -17.19 41.25 -17.78 41.67 -18.19C42.08 -18.59 42.69 -18.8 43.5 -18.8Z M87.87 -8.36L87.87 -35.21L81.91 -35.21L81.91 -8.36C81.91 -7.58 81.71 -6.98 81.32 -6.57C80.92 -6.16 80.32 -5.95 79.51 -5.95L68.77 -5.95C67.99 -5.95 67.4 -6.16 67 -6.57C66.59 -6.98 66.39 -7.59 66.39 -8.4L66.39 -16.41C66.39 -17.19 66.6 -17.78 67.01 -18.19C67.42 -18.59 68.02 -18.8 68.82 -18.8L79.51 -18.8L79.51 -24.75L68.77 -24.75C67.95 -24.75 67.05 -24.6 66.07 -24.31C65.09 -24.02 64.19 -23.55 63.36 -22.88C62.53 -22.22 61.83 -21.36 61.27 -20.3C60.72 -19.23 60.44 -17.94 60.44 -16.41L60.44 -8.36C60.44 -7.81 60.5 -7.22 60.63 -6.58C60.76 -5.95 60.97 -5.32 61.24 -4.7C61.51 -4.09 61.87 -3.5 62.3 -2.93C62.74 -2.37 63.27 -1.87 63.88 -1.43C64.5 -1 65.22 -0.65 66.02 -0.39C66.83 -0.13 67.75 0 68.77 0L79.51 0C80.07 0 80.67 -0.06 81.31 -0.19C81.94 -0.32 82.57 -0.53 83.18 -0.8C83.8 -1.08 84.39 -1.43 84.96 -1.87C85.52 -2.3 86.02 -2.83 86.45 -3.45C86.87 -4.06 87.22 -4.78 87.48 -5.6C87.74 -6.41 87.87 -7.33 87.87 -8.36Z M120.17 -16.55C120.17 -18.05 119.89 -19.32 119.34 -20.36C118.79 -21.41 118.11 -22.26 117.29 -22.9C116.48 -23.55 115.59 -24.02 114.64 -24.31C113.69 -24.6 112.8 -24.75 111.97 -24.75L101.24 -24.75C99.74 -24.75 98.47 -24.47 97.42 -23.92C96.38 -23.37 95.53 -22.69 94.88 -21.87C94.23 -21.06 93.76 -20.17 93.47 -19.22C93.18 -18.27 93.04 -17.38 93.04 -16.55L93.04 -8.2C93.04 -6.7 93.31 -5.43 93.86 -4.38C94.41 -3.34 95.1 -2.49 95.91 -1.84C96.73 -1.19 97.61 -0.72 98.57 -0.43C99.52 -0.14 100.41 0 101.24 0L111.97 0L111.97 -5.68L101.28 -5.68C100.55 -5.68 99.93 -5.9 99.44 -6.34C98.94 -6.78 98.69 -7.4 98.69 -8.2L98.69 -16.51C98.69 -17.24 98.92 -17.85 99.36 -18.35C99.8 -18.85 100.43 -19.09 101.24 -19.09L111.97 -19.09C112.67 -19.09 113.27 -18.87 113.77 -18.43C114.27 -17.99 114.51 -17.38 114.51 -16.6C114.51 -15.87 114.29 -15.25 113.85 -14.75C113.41 -14.26 112.78 -14.01 111.97 -14.01L101.24 -14.01L101.24 -8.36L111.97 -8.36C113.47 -8.36 114.74 -8.63 115.78 -9.18C116.83 -9.73 117.68 -10.41 118.33 -11.23C118.97 -12.05 119.44 -12.93 119.73 -13.88C120.02 -14.84 120.17 -15.73 120.17 -16.55Z M151.6 0L151.6 -13.74C151.6 -15.08 151.43 -16.28 151.1 -17.35C150.76 -18.42 150.31 -19.36 149.73 -20.18C149.16 -21 148.51 -21.69 147.77 -22.26C147.03 -22.84 146.25 -23.31 145.43 -23.68C144.61 -24.06 143.79 -24.33 142.96 -24.5C142.13 -24.66 141.34 -24.75 140.59 -24.75L127.17 -24.75C126.76 -24.75 126.37 -24.67 126.01 -24.52C125.64 -24.37 125.32 -24.16 125.04 -23.89C124.77 -23.62 124.56 -23.31 124.4 -22.95C124.25 -22.59 124.17 -22.21 124.17 -21.79L124.17 0L130.13 0L130.13 -18.8L140.54 -18.8C141.26 -18.8 141.93 -18.68 142.55 -18.44C143.16 -18.2 143.7 -17.86 144.16 -17.42C144.62 -16.98 144.98 -16.45 145.25 -15.83C145.51 -15.21 145.65 -14.51 145.65 -13.74L145.65 0Z M180.74 -8.36C180.74 -9.2 180.6 -10.1 180.3 -11.08C180 -12.06 179.52 -12.96 178.87 -13.79C178.21 -14.63 177.35 -15.32 176.28 -15.87C175.21 -16.41 173.91 -16.69 172.39 -16.69L163.16 -16.69C163.02 -16.69 162.88 -16.69 162.74 -16.7C162.59 -16.71 162.46 -16.74 162.35 -16.8C162.23 -16.86 162.14 -16.96 162.06 -17.1C161.99 -17.24 161.94 -17.43 161.93 -17.67C161.93 -17.8 161.93 -17.92 161.95 -18.05C161.96 -18.18 162.01 -18.3 162.1 -18.42C162.18 -18.53 162.31 -18.62 162.49 -18.69C162.66 -18.76 162.9 -18.8 163.21 -18.8L177.79 -18.8L177.79 -24.75L163.16 -24.75C162.43 -24.75 161.64 -24.62 160.8 -24.37C159.96 -24.12 159.19 -23.71 158.47 -23.15C157.75 -22.58 157.16 -21.84 156.68 -20.94C156.21 -20.03 155.97 -18.91 155.97 -17.58C155.97 -16.9 156.1 -16.16 156.35 -15.36C156.6 -14.57 157.02 -13.83 157.59 -13.14C158.16 -12.45 158.9 -11.88 159.82 -11.42C160.74 -10.97 161.85 -10.74 163.16 -10.74L172.39 -10.74C173.91 -10.74 174.72 -9.94 174.79 -8.36C174.79 -7.58 174.59 -6.98 174.17 -6.57C173.76 -6.16 173.15 -5.95 172.34 -5.95L156.27 -5.95L156.27 0L172.39 0C172.95 0 173.55 -0.06 174.19 -0.19C174.82 -0.32 175.44 -0.53 176.06 -0.8C176.68 -1.08 177.27 -1.43 177.84 -1.87C178.4 -2.3 178.9 -2.83 179.32 -3.45C179.75 -4.06 180.1 -4.78 180.35 -5.6C180.61 -6.41 180.74 -7.33 180.74 -8.36Z"></path></g><g id="SvgjsG5757" class="text" transform="translate(272.14924938491674, 79.63501564070584) scale(1)" light-content="false" fill="#0d0d0d"><path d="M-94.17 -11.96L-104.09 -11.96L-104.09 -10.17L-100.2 -10.17L-100.2 0L-98.06 0L-98.06 -10.17L-94.17 -10.17Z M-89.87 -1.61L-89.87 -5.47L-87.32 -5.47C-86.89 -5.47 -86.49 -5.44 -86.11 -5.38C-85.74 -5.32 -85.41 -5.21 -85.13 -5.06C-84.86 -4.91 -84.64 -4.7 -84.48 -4.45C-84.32 -4.2 -84.24 -3.88 -84.24 -3.5C-84.24 -3.1 -84.33 -2.77 -84.5 -2.52C-84.68 -2.27 -84.92 -2.06 -85.22 -1.91C-85.51 -1.76 -85.87 -1.65 -86.27 -1.59C-86.68 -1.53 -87.1 -1.49 -87.55 -1.49C-87.76 -1.49 -87.99 -1.5 -88.23 -1.51C-88.47 -1.51 -88.69 -1.52 -88.91 -1.53C-89.12 -1.54 -89.31 -1.55 -89.48 -1.56C-89.65 -1.58 -89.78 -1.59 -89.87 -1.61ZM-87.6 -7.06L-89.87 -7.06L-89.87 -10.44C-89.63 -10.46 -89.32 -10.47 -88.96 -10.49C-88.6 -10.5 -88.25 -10.51 -87.89 -10.51C-87.51 -10.51 -87.13 -10.49 -86.76 -10.45C-86.38 -10.42 -86.04 -10.34 -85.74 -10.22C-85.45 -10.11 -85.2 -9.94 -85.02 -9.73C-84.84 -9.51 -84.74 -9.22 -84.74 -8.85C-84.74 -8.5 -84.82 -8.21 -84.96 -7.98C-85.11 -7.75 -85.31 -7.57 -85.56 -7.43C-85.81 -7.29 -86.11 -7.2 -86.46 -7.14C-86.8 -7.09 -87.18 -7.06 -87.6 -7.06ZM-87.64 0.21C-86.87 0.21 -86.15 0.15 -85.48 0.03C-84.8 -0.08 -84.22 -0.28 -83.72 -0.58C-83.22 -0.87 -82.83 -1.25 -82.55 -1.73C-82.26 -2.2 -82.12 -2.8 -82.12 -3.52C-82.12 -4.33 -82.32 -4.96 -82.71 -5.42C-83.1 -5.87 -83.62 -6.21 -84.28 -6.44C-83.79 -6.67 -83.4 -6.99 -83.11 -7.41C-82.82 -7.82 -82.67 -8.32 -82.67 -8.9C-82.67 -9.55 -82.82 -10.09 -83.1 -10.52C-83.38 -10.96 -83.75 -11.3 -84.21 -11.56C-84.67 -11.81 -85.2 -11.99 -85.8 -12.1C-86.4 -12.21 -87.01 -12.26 -87.64 -12.26C-88.55 -12.26 -89.38 -12.22 -90.15 -12.13C-90.92 -12.05 -91.52 -11.95 -91.97 -11.85L-91.97 -0.21C-91.52 -0.1 -90.92 0 -90.15 0.08C-89.38 0.16 -88.55 0.21 -87.64 0.21Z M-68.8 -5.98C-68.8 -6.92 -68.94 -7.77 -69.22 -8.54C-69.49 -9.32 -69.88 -9.98 -70.38 -10.53C-70.88 -11.09 -71.47 -11.51 -72.16 -11.81C-72.85 -12.11 -73.6 -12.26 -74.42 -12.26C-75.23 -12.26 -75.98 -12.11 -76.67 -11.81C-77.36 -11.51 -77.95 -11.09 -78.45 -10.53C-78.95 -9.98 -79.34 -9.32 -79.61 -8.54C-79.89 -7.77 -80.03 -6.92 -80.03 -5.98C-80.03 -5.03 -79.89 -4.17 -79.61 -3.4C-79.34 -2.64 -78.95 -1.98 -78.45 -1.43C-77.95 -0.87 -77.36 -0.45 -76.67 -0.15C-75.98 0.15 -75.23 0.3 -74.42 0.3C-73.6 0.3 -72.85 0.15 -72.16 -0.15C-71.47 -0.45 -70.88 -0.87 -70.38 -1.43C-69.88 -1.98 -69.49 -2.64 -69.22 -3.4C-68.94 -4.17 -68.8 -5.03 -68.8 -5.98ZM-71.04 -5.98C-71.04 -4.63 -71.34 -3.56 -71.94 -2.77C-72.55 -1.98 -73.37 -1.59 -74.42 -1.59C-75.46 -1.59 -76.28 -1.98 -76.89 -2.77C-77.49 -3.56 -77.8 -4.63 -77.8 -5.98C-77.8 -7.33 -77.49 -8.4 -76.89 -9.19C-76.28 -9.98 -75.46 -10.37 -74.42 -10.37C-73.37 -10.37 -72.55 -9.98 -71.94 -9.19C-71.34 -8.4 -71.04 -7.33 -71.04 -5.98Z M-55.74 -11.96L-57.63 -11.96C-58.1 -11.44 -58.61 -10.82 -59.16 -10.11C-59.7 -9.4 -60.24 -8.65 -60.79 -7.88C-61.33 -7.1 -61.86 -6.32 -62.36 -5.53C-62.87 -4.74 -63.32 -4.02 -63.72 -3.36L-63.72 -11.96L-65.79 -11.96L-65.79 0L-63.88 0C-63.51 -0.63 -63.08 -1.35 -62.57 -2.16C-62.07 -2.97 -61.54 -3.8 -60.98 -4.63C-60.43 -5.47 -59.88 -6.28 -59.33 -7.06C-58.78 -7.84 -58.27 -8.53 -57.81 -9.11L-57.81 0L-55.74 0Z M-48.15 2.23L-48.54 3.96C-48.48 3.99 -48.38 4.03 -48.23 4.07C-48.09 4.12 -47.92 4.16 -47.75 4.2C-47.57 4.24 -47.39 4.27 -47.21 4.29C-47.02 4.31 -46.85 4.32 -46.68 4.32C-46.05 4.32 -45.49 4.25 -44.99 4.09C-44.49 3.94 -44.04 3.7 -43.64 3.38C-43.24 3.06 -42.88 2.65 -42.55 2.15C-42.22 1.65 -41.9 1.06 -41.6 0.37C-40.81 -1.44 -40.09 -3.38 -39.41 -5.46C-38.74 -7.54 -38.12 -9.71 -37.57 -11.96L-39.78 -11.96C-40.16 -10.29 -40.57 -8.66 -41 -7.08C-41.43 -5.5 -41.93 -3.91 -42.52 -2.3C-42.88 -3.08 -43.24 -3.89 -43.57 -4.74C-43.91 -5.58 -44.23 -6.42 -44.52 -7.27C-44.81 -8.11 -45.07 -8.93 -45.31 -9.73C-45.55 -10.53 -45.75 -11.27 -45.92 -11.96L-48.22 -11.96C-47.67 -9.84 -46.97 -7.75 -46.14 -5.69C-45.3 -3.63 -44.4 -1.68 -43.44 0.16C-43.82 1 -44.25 1.61 -44.72 1.99C-45.2 2.37 -45.86 2.55 -46.7 2.55C-46.96 2.55 -47.23 2.52 -47.49 2.45C-47.76 2.38 -47.98 2.31 -48.15 2.23Z M-33.04 -8.81C-32.79 -8.36 -32.51 -7.81 -32.19 -7.14C-31.87 -6.47 -31.55 -5.79 -31.23 -5.09C-30.92 -4.4 -30.62 -3.73 -30.34 -3.11C-30.05 -2.48 -29.83 -1.97 -29.66 -1.59L-27.86 -1.59C-27.71 -1.96 -27.5 -2.45 -27.22 -3.08C-26.94 -3.71 -26.65 -4.37 -26.34 -5.06C-26.02 -5.75 -25.7 -6.43 -25.38 -7.1C-25.06 -7.76 -24.77 -8.33 -24.53 -8.81C-24.38 -7.29 -24.26 -5.78 -24.18 -4.27C-24.11 -2.76 -24.05 -1.33 -24 0L-21.88 0C-21.92 -0.94 -21.96 -1.91 -22.02 -2.93C-22.08 -3.95 -22.15 -4.98 -22.23 -6.01C-22.31 -7.05 -22.39 -8.07 -22.48 -9.07C-22.57 -10.08 -22.67 -11.04 -22.78 -11.96L-24.76 -11.96C-25.25 -11.16 -25.83 -10.07 -26.48 -8.68C-27.14 -7.29 -27.9 -5.7 -28.76 -3.89C-29.62 -5.7 -30.38 -7.29 -31.04 -8.68C-31.7 -10.07 -32.27 -11.16 -32.76 -11.96L-34.72 -11.96C-34.83 -11.04 -34.93 -10.08 -35.02 -9.07C-35.11 -8.07 -35.19 -7.05 -35.27 -6.01C-35.35 -4.98 -35.42 -3.95 -35.48 -2.93C-35.54 -1.91 -35.58 -0.94 -35.62 0L-33.57 0C-33.52 -1.33 -33.46 -2.76 -33.38 -4.27C-33.31 -5.78 -33.19 -7.29 -33.04 -8.81Z M-8.71 0L-8.71 -11.96L-10.84 -11.96L-10.84 -7.08L-16.36 -7.08L-16.36 -11.96L-18.5 -11.96L-18.5 0L-16.36 0L-16.36 -5.29L-10.84 -5.29L-10.84 0Z M-0.63 -5.91C-0.26 -5.91 0.09 -5.87 0.43 -5.78C0.76 -5.7 1.07 -5.57 1.33 -5.39C1.6 -5.22 1.82 -4.99 1.98 -4.72C2.14 -4.44 2.22 -4.11 2.22 -3.73C2.22 -2.94 1.97 -2.38 1.46 -2.02C0.95 -1.67 0.23 -1.49 -0.7 -1.49C-0.87 -1.49 -1.06 -1.5 -1.28 -1.51C-1.49 -1.51 -1.7 -1.52 -1.91 -1.53C-2.12 -1.54 -2.31 -1.55 -2.48 -1.56C-2.66 -1.58 -2.79 -1.59 -2.89 -1.61L-2.89 -5.73C-2.58 -5.8 -2.23 -5.85 -1.84 -5.88C-1.45 -5.9 -1.05 -5.91 -0.63 -5.91ZM-5.03 -11.96L-5.03 -0.25C-4.34 -0.08 -3.62 0.04 -2.89 0.13C-2.15 0.21 -1.42 0.25 -0.7 0.25C0.05 0.25 0.74 0.18 1.37 0.03C2 -0.11 2.53 -0.34 2.98 -0.67C3.42 -0.99 3.77 -1.4 4.01 -1.91C4.26 -2.41 4.38 -3.03 4.38 -3.75C4.38 -4.44 4.26 -5.03 4 -5.53C3.75 -6.03 3.41 -6.44 2.98 -6.75C2.55 -7.06 2.05 -7.29 1.48 -7.44C0.92 -7.59 0.32 -7.66 -0.31 -7.66C-0.77 -7.66 -1.25 -7.63 -1.75 -7.57C-2.25 -7.51 -2.63 -7.44 -2.89 -7.38L-2.89 -11.96ZM8.73 0L8.73 -11.96L6.59 -11.96L6.59 0Z M11.74 -5.96C11.74 -5.05 11.86 -4.22 12.1 -3.46C12.34 -2.7 12.7 -2.05 13.19 -1.49C13.68 -0.94 14.31 -0.51 15.07 -0.2C15.82 0.12 16.72 0.28 17.77 0.28C18.6 0.28 19.34 0.2 19.99 0.05C20.64 -0.11 21.09 -0.25 21.36 -0.39L21.06 -2.19C20.8 -2.06 20.41 -1.94 19.9 -1.81C19.38 -1.68 18.75 -1.61 18 -1.61C16.66 -1.61 15.68 -1.93 15.05 -2.58C14.42 -3.22 14.06 -4.16 13.97 -5.41L22.16 -5.41C22.18 -5.53 22.18 -5.66 22.18 -5.81L22.18 -6.16C22.18 -8.22 21.75 -9.75 20.9 -10.75C20.04 -11.76 18.8 -12.26 17.19 -12.26C16.5 -12.26 15.83 -12.13 15.17 -11.87C14.51 -11.61 13.93 -11.22 13.42 -10.7C12.91 -10.17 12.51 -9.52 12.2 -8.73C11.89 -7.94 11.74 -7.01 11.74 -5.96ZM19.95 -7.13L14.02 -7.13C14.06 -7.54 14.16 -7.95 14.31 -8.35C14.45 -8.75 14.65 -9.1 14.92 -9.41C15.18 -9.71 15.49 -9.96 15.87 -10.15C16.25 -10.35 16.68 -10.44 17.17 -10.44C18.04 -10.44 18.73 -10.13 19.23 -9.51C19.73 -8.89 19.97 -8.1 19.95 -7.13Z M37.98 -10.17L37.98 -11.96L30.58 -11.96L30.58 0L32.72 0L32.72 -10.17Z M48.5 -5.96C48.5 -5.34 48.43 -4.77 48.31 -4.24C48.19 -3.71 47.99 -3.25 47.71 -2.86C47.44 -2.47 47.08 -2.17 46.64 -1.94C46.21 -1.72 45.68 -1.61 45.07 -1.61C44.49 -1.61 43.95 -1.71 43.46 -1.91C42.97 -2.11 42.59 -2.32 42.33 -2.53L42.33 -10.07C42.55 -10.14 42.83 -10.19 43.19 -10.24C43.55 -10.28 44.06 -10.3 44.7 -10.3C45.85 -10.3 46.77 -9.93 47.46 -9.18C48.15 -8.43 48.5 -7.35 48.5 -5.96ZM50.73 -5.96C50.73 -6.92 50.58 -7.79 50.3 -8.57C50.02 -9.34 49.61 -10 49.09 -10.53C48.57 -11.07 47.94 -11.48 47.21 -11.78C46.47 -12.07 45.64 -12.21 44.72 -12.21C43.73 -12.21 42.85 -12.14 42.09 -11.99C41.33 -11.85 40.7 -11.71 40.19 -11.59L40.19 4.26L42.33 4.26L42.33 -0.53C42.59 -0.36 42.99 -0.18 43.52 0C44.05 0.18 44.65 0.28 45.34 0.28C46.2 0.28 46.97 0.12 47.63 -0.18C48.3 -0.49 48.86 -0.92 49.32 -1.47C49.78 -2.02 50.13 -2.68 50.37 -3.45C50.61 -4.22 50.73 -5.05 50.73 -5.96Z M58.68 -4.65L60.55 -4.65L60.55 0L62.66 0L62.66 -11.8C62.19 -11.92 61.6 -12.03 60.89 -12.12C60.19 -12.21 59.33 -12.26 58.32 -12.26C57.6 -12.26 56.93 -12.17 56.33 -12.01C55.72 -11.84 55.2 -11.59 54.75 -11.26C54.31 -10.93 53.96 -10.51 53.71 -10.01C53.45 -9.5 53.33 -8.91 53.33 -8.23C53.33 -7.91 53.36 -7.59 53.43 -7.28C53.5 -6.97 53.62 -6.67 53.79 -6.39C53.95 -6.12 54.18 -5.87 54.45 -5.65C54.73 -5.42 55.08 -5.24 55.51 -5.08C55.28 -4.76 55.04 -4.4 54.77 -4C54.51 -3.6 54.26 -3.18 54 -2.74C53.75 -2.29 53.5 -1.84 53.26 -1.37C53.01 -0.9 52.8 -0.44 52.61 0L54.77 0C55.13 -0.72 55.53 -1.5 55.98 -2.33C56.43 -3.17 56.91 -3.96 57.4 -4.69C57.6 -4.68 57.8 -4.67 58.02 -4.66C58.23 -4.65 58.45 -4.65 58.68 -4.65ZM60.55 -10.37L60.55 -6.23L58.41 -6.23C57.53 -6.23 56.82 -6.38 56.27 -6.67C55.72 -6.96 55.44 -7.49 55.44 -8.26C55.44 -9.04 55.71 -9.61 56.25 -9.97C56.78 -10.33 57.49 -10.51 58.36 -10.51C58.87 -10.51 59.32 -10.5 59.71 -10.47C60.1 -10.43 60.38 -10.4 60.55 -10.37Z M64.87 -1.75L64.87 3.34L66.9 3.34L66.9 0L75.87 0L75.87 3.34L77.89 3.34L77.89 -1.75L76.28 -1.75L76.28 -11.96L68.44 -11.96C68.42 -10.95 68.39 -9.99 68.34 -9.07C68.3 -8.16 68.2 -7.29 68.05 -6.45C67.89 -5.62 67.67 -4.81 67.37 -4.03C67.07 -3.24 66.67 -2.48 66.16 -1.75ZM74.14 -1.75L68.44 -1.75C68.82 -2.39 69.14 -3.06 69.39 -3.74C69.64 -4.42 69.84 -5.12 69.98 -5.83C70.12 -6.54 70.22 -7.26 70.28 -7.99C70.34 -8.72 70.38 -9.45 70.39 -10.17L74.14 -10.17Z M84.58 -6.51C84.97 -6.89 85.4 -7.33 85.87 -7.81C86.35 -8.29 86.83 -8.78 87.31 -9.27C87.79 -9.76 88.26 -10.24 88.71 -10.71C89.16 -11.17 89.56 -11.59 89.9 -11.96L87.41 -11.96C87.15 -11.67 86.81 -11.3 86.4 -10.87C85.99 -10.43 85.54 -9.97 85.05 -9.49C84.57 -9 84.09 -8.53 83.62 -8.06C83.14 -7.59 82.72 -7.18 82.35 -6.83L82.35 -11.96L80.21 -11.96L80.21 0L82.35 0L82.35 -5.66C82.8 -5.37 83.27 -5.01 83.78 -4.58C84.28 -4.15 84.78 -3.68 85.27 -3.17C85.76 -2.67 86.23 -2.14 86.69 -1.6C87.14 -1.05 87.53 -0.52 87.87 0L90.4 0C90.08 -0.54 89.69 -1.12 89.23 -1.74C88.77 -2.36 88.27 -2.97 87.75 -3.57C87.22 -4.16 86.68 -4.72 86.12 -5.23C85.57 -5.75 85.06 -6.17 84.58 -6.51Z M102.61 -11.96L100.73 -11.96C100.25 -11.44 99.74 -10.82 99.2 -10.11C98.65 -9.4 98.11 -8.65 97.57 -7.88C97.02 -7.1 96.5 -6.32 95.99 -5.53C95.48 -4.74 95.03 -4.02 94.63 -3.36L94.63 -11.96L92.56 -11.96L92.56 0L94.47 0C94.84 -0.63 95.28 -1.35 95.78 -2.16C96.29 -2.97 96.82 -3.8 97.37 -4.63C97.92 -5.47 98.47 -6.28 99.03 -7.06C99.58 -7.84 100.08 -8.53 100.54 -9.11L100.54 0L102.61 0Z"></path></g></g></g></svg>